<?xml version="1.0" encoding="UTF-8"?>
<svg id="Layer_2" data-name="Layer 2" xmlns="http://www.w3.org/2000/svg" viewBox="0 0 354.85 135.04">
  <defs>
    <style>
      .cls-1, .cls-2 {
        fill: #fff;
      }

      .cls-3, .cls-4 {
        fill: #ef4969;
      }

      .cls-2 {
        opacity: .15;
      }

      .cls-4 {
        font-family: Nexa-Bold, Nexa-Bold;
        font-size: 22.42px;
        font-weight: 700;
      }
    </style>
  </defs>
  <g id="Layer_1-2" data-name="Layer 1">
    <g>
      <g>
        <text class="cls-4" transform="translate(300.9 128.45)"><tspan x="0" y="0">.EDU</tspan></text>
        <g>
          <g>
            <path class="cls-1" d="m13.19,29.6v56.98h43.44v12.25H0V16.42h0c7.28,0,13.19,5.9,13.19,13.19Z"/>
            <path class="cls-1" d="m192.96,48.44h0c1.57-2.98,3.83-5.18,6.77-6.59s6.1-2.12,9.48-2.12c9.18,0,15.27,3.88,18.25,11.66,4.24-7.69,10.87-11.54,19.9-11.54,7.93,0,14.01,2.35,18.25,7.06,4.24,4.71,6.36,11.3,6.36,19.78v32.14h0c-6.76,0-12.24-5.48-12.24-12.24v-19.9c0-4.55-1.1-8.26-3.3-11.13-2.2-2.86-5.38-4.3-9.54-4.3s-7.65,1.51-10.24,4.53c-2.59,3.02-3.89,6.73-3.89,11.13v31.91h0c-6.76,0-12.24-5.48-12.24-12.24v-19.66c0-4.47-1.22-8.22-3.65-11.24-2.43-3.02-5.73-4.53-9.89-4.53s-7.54,1.53-10.13,4.59"/>
          </g>
          <path class="cls-1" d="m122.22,58.3c12.77-25.14,29.41-28.35,47.02-25.43,20.01,3.31,30.9,18.3,31.57,32.54,1.08,23.09-8.48,37.69-27.99,43.38-16.13,4.7-38.22,1.12-51.11-25.9-3.14,10.39-9.45,17.62-18.46,22.55-8.9,4.87-18.57,6.54-28.23,4.28-19.31-4.51-31.05-19.7-32.12-36.17-1.33-20.52,12.78-35.49,27.25-39.6,17.26-4.9,41.09-1.55,52.09,24.35Zm-39.26-14.17c-15.3.99-25.87,14.6-25.25,26.96.75,14.9,11.83,27.55,25.82,27.1,14.97-.49,25.26-11.04,25.36-27.27.09-14.62-8.45-26.83-25.93-26.79Zm102.97,26.73c1.61-15.61-11.25-25.64-24.26-25.97-17.62-.45-26.66,13.86-26.54,26.34.14,14.65,11.94,26.96,26.05,27.02,14.72.07,24.76-11.11,24.76-27.39Z"/>
          <path class="cls-3" d="m56.43,24.03c-1.85-3.6-3.38-6.93-5.23-10.07-1.55-2.63-.84-4.01,1.69-5.41C68.34-.03,84.44-2.43,101.62,2.61c5.81,1.7,11.33,3.81,16.27,7.22,2.7,1.86,4.7,1.91,7.59.13C136.46,3.18,148.46-.37,161.45.39c8.98.52,17.63,2.52,25.5,7.2,2.67,1.59,3.99,3.27,2.09,6.42-1.77,2.92-1.12,7.84-4.35,9.04-2.95,1.1-5.65-2.72-8.65-4.05-15.2-6.79-29.51-4.22-43.21,4.02-3.96,2.38-7.51,7.55-11.28,7.58-3.69.03-7.28-5.08-11.15-7.54-15.97-10.17-32.35-10.94-49.06-1.77-1.6.88-3.2,1.78-4.92,2.73Z"/>
        </g>
        <path class="cls-1" d="m332.3,41.26l-37.56,87.19h0c-6.51,0-10.89-6.66-8.3-12.64l6.86-15.86-23.79-58.69h0c8.7,0,16.48,5.44,19.46,13.61l5.3,14.52,5.92,16.91,6.4-16.67,6.49-15.56c3.24-7.76,10.82-12.82,19.23-12.82h0Z"/>
      </g>
      <g>
        <circle class="cls-1" cx="84.06" cy="75.59" r="8.31"/>
        <circle class="cls-1" cx="159.62" cy="75.59" r="8.31"/>
      </g>
      <path class="cls-2" d="m187.06,71.1c0,16.49-13.36,29.85-29.85,29.85-1.17,0-2.32-.07-3.45-.2,14.87-1.71,26.4-14.33,26.4-29.65s-11.53-27.93-26.4-29.64c1.13-.13,2.28-.2,3.45-.2,16.49,0,29.85,13.36,29.85,29.84Z"/>
      <path class="cls-2" d="m110.02,71.1c0,16.49-13.36,29.85-29.85,29.85-1.17,0-2.32-.07-3.45-.2,14.87-1.71,26.4-14.33,26.4-29.65s-11.53-27.93-26.4-29.64c1.13-.13,2.28-.2,3.45-.2,16.49,0,29.85,13.36,29.85,29.84Z"/>
    </g>
  </g>
</svg>